<?xml version="1.0" encoding="UTF-8" standalone="no"?>
<!-- Generator: Adobe Illustrator 27.5.0, SVG Export Plug-In . SVG Version: 6.00 Build 0)  -->

<svg
   version="1.1"
   id="Ebene_1"
   x="0px"
   y="0px"
   viewBox="0 0 268.27648 94.488188"
   xml:space="preserve"
   sodipodi:docname="tubaf.svg"
   width="268.27649"
   height="94.48819"
   inkscape:version="1.4.3 (0d15f75042, 2025-12-25)"
   xmlns:inkscape="http://www.inkscape.org/namespaces/inkscape"
   xmlns:sodipodi="http://sodipodi.sourceforge.net/DTD/sodipodi-0.dtd"
   xmlns="http://www.w3.org/2000/svg"
   xmlns:svg="http://www.w3.org/2000/svg"><defs
   id="defs45" /><sodipodi:namedview
   id="namedview45"
   pagecolor="#ffffff"
   bordercolor="#000000"
   borderopacity="0.25"
   inkscape:showpageshadow="2"
   inkscape:pageopacity="0.0"
   inkscape:pagecheckerboard="0"
   inkscape:deskcolor="#d1d1d1"
   inkscape:zoom="2.5210155"
   inkscape:cx="157.07956"
   inkscape:cy="124.15632"
   inkscape:window-width="3072"
   inkscape:window-height="1659"
   inkscape:window-x="0"
   inkscape:window-y="0"
   inkscape:window-maximized="1"
   inkscape:current-layer="Ebene_1" />
<style
   type="text/css"
   id="style1">
	.st0{fill:#0069B4;}
	.st1{enable-background:new    ;}
</style>
<g
   id="g45"
   transform="scale(0.46024447)"
   style="stroke-width:2.17276">
	<g
   id="g10"
   style="stroke-width:2.17276">
		<g
   id="g9"
   style="stroke-width:2.17276">
			<path
   class="st0"
   d="m 204.8,90.8 -18.8,-4.4 16,-10.8 -23.9,-0.3 0.5,2.8 15.1,-0.1 v 0.1 l -13.9,9.4 16.3,3.9 v 0.1 l -14.1,5.3 0.5,2.8 z M 193,61.7 l 2.3,-1.2 -5.6,-10.7 -20,10.4 5.6,10.7 2.3,-1.2 -4.3,-8.2 7.5,-3.9 4.2,8 2.3,-1.2 -4.1,-8 5.6,-2.9 z M 174.7,47.3 c 5.5,-5.1 4.3,-11.7 -0.3,-16.8 l -3.1,-3.4 -16.6,15.2 3.1,3.4 c 4.7,5.2 11.2,6.8 16.9,1.6 z m -2,-2 c -4.8,4.4 -9.7,2.2 -13.6,-2 l -0.7,-0.7 12.8,-11.8 0.7,0.7 c 3.8,4.3 5.6,9.4 0.8,13.8 z m -22,-6.2 2.9,-25.6 -21.3,14.6 2.6,1.6 5.1,-3.5 8.9,5.3 -0.7,6.2 z m -0.3,-20.3 -1.3,9.9 -6.9,-4.1 z m -27.9,-5.7 12.3,-7.3 -3.6,-0.9 -11.6,7.1 2.4,-9.5 -2.7,-0.7 -5.5,21.8 2.7,0.7 2.3,-9.1 1.4,-0.8 5.7,12.2 3.7,0.9 z m -16.9,10.1 3,-0.1 L 97.1,0 l -10,23.8 3,-0.1 2.4,-5.7 10.3,-0.3 z m -4,-8.1 -8,0.2 3.7,-9.2 z m -21.8,0.1 -0.3,-0.8 -8.4,3.1 0.9,2.4 5.5,-2 c 1.2,3.5 -1.3,7.6 -4.6,8.8 -4.6,1.7 -9.8,-1.1 -11.4,-5.6 -1.8,-4.7 0.5,-9.9 5.2,-11.7 2.6,-1 5.6,-0.5 7.9,1 L 75.8,8 C 72.8,6.2 69,5.9 65.7,7.1 c -6.1,2.3 -9.1,9 -6.8,15.1 2.2,5.8 8.8,9.2 14.7,7 5.9,-2.3 8.3,-8.2 6.2,-14 z M 48,31.8 c 2.4,-2.3 2.5,-5.7 0.5,-8.3 -1.3,-1.7 -3.4,-2.8 -5.6,-2.5 -2,0.3 -3.8,1.5 -5.4,2.8 l -2.7,2 13.6,17.9 2.2,-1.7 -5.7,-7.6 0.9,-0.7 11,3.6 2.7,-2.1 z m -3.8,0.3 -0.7,0.5 -4.9,-6.5 0.6,-0.5 c 2.2,-1.7 5.2,-3.3 7.3,-0.5 2.2,3 0,5.3 -2.3,7 z m -16.9,15.2 -4.9,-4 5.9,-7.2 -2,-1.6 -7.6,9.4 17.4,14.2 7.6,-9.4 -2,-1.6 -5.9,7.2 -6.6,-5.4 5.7,-7 -2,-1.6 z M 20,62.5 c 0,-1.7 -1.3,-3.3 -2.8,-4 -4.6,-2.2 -7.3,1 -9.1,4.8 l -1.2,2.5 20.3,9.7 2.3,-4.7 C 31.2,67.2 31.2,63 27.2,61 24.7,59.8 21.6,60.3 20,62.5 Z m -2.6,4.3 -0.3,0.6 -6.7,-3.2 0.3,-0.7 c 1.1,-2.4 2.5,-4.1 5.4,-2.7 2.9,1.4 2.4,3.6 1.3,6 z m 2.4,0.1 c 1.1,-2.3 3.1,-4.9 5.9,-3.5 2.9,1.4 2.4,4.2 1.3,6.5 l -0.9,1.9 -7,-3.3 z M 14.6,93.6 0.4,93.3 0.3,96.1 13.6,96.4 c 3.7,0.1 7,1.2 7,5.6 -0.1,4.3 -3.5,5.4 -7.2,5.3 L 0.1,107 0,109.8 l 14.2,0.3 c 5,0.1 8.8,-2.9 8.9,-8.1 0.2,-5.1 -3.6,-8.3 -8.5,-8.4 z M 4,119.9 l -2.5,0.6 3.1,13.1 2.5,-0.6 -1.2,-5.2 19.4,-4.6 -0.6,-2.7 -19.4,4.6 z m 39.8,37.4 -15,16.7 2.1,1.9 7.4,-8.2 5.8,5.2 1.7,-1.9 -5.8,-5.2 4.2,-4.7 6,5.4 1.7,-1.9 z m 12,10.7 -11.1,19.6 2.4,1.4 4.7,-8.3 1,0.6 1.1,11.5 3,1.7 -1.3,-12 c 3,1.3 6.2,0 7.8,-2.8 1.1,-1.9 1.2,-4.2 0.1,-6.1 -1.1,-1.8 -2.9,-2.9 -4.6,-3.8 z m -2.8,10.7 4,-7.1 0.6,0.4 c 2.4,1.4 5.1,3.5 3.3,6.5 -1.8,3.1 -4.7,2 -7.2,0.6 z m 18.5,-2 -6.6,21.5 11.6,3.5 0.7,-2.5 -8.9,-2.7 2.5,-8.1 8.6,2.6 0.7,-2.5 -8.6,-2.6 1.8,-6 8.9,2.7 0.7,-2.5 z m 17.6,4.8 -2.7,22.3 2.8,0.3 2.7,-22.3 z m 12.6,1.2 -2.7,0.1 0.8,22.5 5.2,-0.2 c 4,-0.1 7.7,-2.1 7.6,-6.6 -0.1,-2.6 -2,-5.2 -4.7,-5.5 v -0.1 c 1.5,-0.8 2.3,-2.7 2.3,-4.4 -0.2,-5 -4.3,-5.9 -8.5,-5.8 z m 0.5,12.2 1.7,-0.1 c 2.5,-0.1 5.8,0.4 5.9,3.6 0.1,3.2 -2.6,4.1 -5.2,4.2 l -2.1,0.1 z m -0.3,-9.7 h 0.8 c 2.6,-0.1 4.8,0.4 4.9,3.5 0.1,3.2 -2,3.8 -4.7,3.9 h -0.7 z m 26.2,-6.9 -11.6,3.4 6.3,21.6 11.6,-3.4 -0.7,-2.5 -8.9,2.6 -2.4,-8.2 8.7,-2.5 -0.7,-2.5 -8.7,2.5 -1.8,-6 8.9,-2.6 z m 5,-1.6 10.8,19.7 2.5,-1.4 -4.6,-8.3 1,-0.6 10.4,5.1 3,-1.6 -10.9,-5.2 c 2.7,-1.9 3.3,-5.3 1.7,-8.1 -1,-1.9 -3,-3.2 -5.2,-3.3 -2.1,0 -4,1 -5.7,1.9 z m 3.7,0.9 0.7,-0.4 c 2.4,-1.3 5.6,-2.5 7.3,0.6 1.7,3.1 -0.7,5.1 -3.2,6.5 l -0.8,0.4 z m 18.3,0.1 c 4.2,4.6 11.6,5.2 16.3,0.9 4.6,-4.3 4.6,-10.7 0.5,-15.2 l -0.6,-0.7 -6.6,6 1.7,1.9 4.3,-3.9 c 2.4,2.8 1.7,7.6 -0.9,9.9 -3.6,3.3 -9.5,2.6 -12.7,-0.9 -3.4,-3.7 -3.3,-9.4 0.5,-12.8 2,-1.9 5,-2.6 7.7,-2.1 l 0.2,-2.7 c -3.5,-0.6 -7.1,0.6 -9.7,3 -4.8,4.4 -5.1,11.8 -0.7,16.6 z m 26,-62.1 -3,11.7 2.5,0.6 2.3,-9 8.2,2.1 -2.2,8.7 2.5,0.6 2.2,-8.7 6.1,1.5 -2.3,9 2.5,0.6 3,-11.7 z m 0.5,-7.5 22.4,1.6 0.2,-2.8 -22.4,-1.6 z M 19.8,150 c 0,1.5 1.3,2.8 2.8,2.8 1.5,0 2.8,-1.3 2.8,-2.8 0,-1.5 -1.3,-2.8 -2.8,-2.8 -1.5,0 -2.8,1.2 -2.8,2.8 z m 159.1,0 c 0,1.5 1.3,2.8 2.8,2.8 1.5,0 2.8,-1.3 2.8,-2.8 0,-1.5 -1.3,-2.8 -2.8,-2.8 -1.5,0 -2.8,1.2 -2.8,2.8 z"
   id="path1"
   style="stroke-width:2.17276" />
			<g
   id="g6"
   style="stroke-width:2.17276">
				<path
   class="st0"
   d="m 276.8,38.8 v 63.8 H 258.5 V 38.8 H 241.3 V 23.4 H 294 v 15.4 z"
   id="path2"
   style="stroke-width:2.17276" />
				<path
   class="st0"
   d="m 370.6,70.3 c 0,7.6 -1,17 -8.8,25.1 -7.6,7.8 -16.4,9 -24.7,9 -8.3,0 -17.1,-1.2 -24.7,-9 -7.8,-8.1 -8.8,-17.5 -8.8,-25.1 V 23.4 h 18.3 v 46.4 c 0,3.4 0.2,9.3 4.2,13.3 3.2,3.4 7.6,4.2 11,4.2 3.4,0 7.8,-0.7 11,-4.2 3.9,-4 4.2,-9.9 4.2,-13.3 V 23.4 h 18.3 z"
   id="path3"
   style="stroke-width:2.17276" />
				<path
   class="st0"
   d="m 439.8,65.6 c -2.9,-2.9 -7.1,-4.8 -10.9,-5.3 1.9,-0.8 4.6,-2.5 6.7,-5.8 2.1,-3.4 2.6,-7 2.6,-10.1 0,-3.4 -0.6,-10.1 -5.7,-15 -6.2,-5.8 -15.9,-6.1 -20.2,-6.1 h -24.2 v 79.2 h 29.8 c 4.9,0 14.4,-0.5 20.9,-6.8 3.1,-3.1 6.2,-8.1 6.2,-16 -0.1,-6.9 -2.6,-11.4 -5.2,-14.1 z M 406,37.6 h 2.8 c 3.3,0 6.9,0 9.5,2 1.4,1.1 3.1,3.2 3.1,6.7 0,3.4 -1.5,5.8 -3.2,7 -2.6,1.9 -6.8,2.3 -9.3,2.3 h -3 v -18 z m 18,47.5 c -3.3,3.1 -8.9,3.2 -13.5,3.2 h -4.4 V 69.1 h 5 c 3.7,0 9.9,0 13.1,3 1.2,1.1 2.5,3.2 2.5,6.4 -0.1,2.8 -1.1,5.1 -2.7,6.6 z"
   id="path4"
   style="stroke-width:2.17276" />
				<path
   class="st0"
   d="m 498.8,23.4 h -16.7 l -32,79.2 h 19 l 6.1,-15 h 29.9 l 5.9,15 h 19 z m -18.3,50.2 9.9,-26.6 9.7,26.6 z"
   id="path5"
   style="stroke-width:2.17276" />
				<path
   class="st0"
   d="M 582.9,38.8 H 557.2 V 54.1 H 581 v 15.4 h -23.8 v 33 H 538.9 V 23.3 h 44 z"
   id="path6"
   style="stroke-width:2.17276" />
			</g>
			<g
   id="g8"
   style="stroke-width:2.17276">
				<path
   class="st0"
   d="m 109.2,102.6 22.6,-23.4 5.6,5.6 23.1,11.5 -11.5,-23.1 -5.8,-5.8 1.6,-1.7 -5.4,-5.4 -1.7,1.6 L 124.2,48.4 112.6,60 125.9,73.3 104.7,93.8 V 64.3 h 0.5 c 2.2,0 3.9,-1.8 3.9,-3.9 l -0.4,-11 h -4.4 l 0.4,9.8 c 0,0.4 -0.3,0.7 -0.7,0.7 h -3.1 c -0.4,0 -0.7,-0.3 -0.7,-0.7 l 0.4,-9.8 h -4.4 l -0.4,11 c 0,2.2 1.8,3.9 3.9,3.9 h 0.5 V 93.8 L 77.1,71.5 C 82,67.1 87.6,63.4 93.6,60.5 L 82.5,47.8 C 67.7,55.9 55.5,68.1 47.4,82.9 L 60.1,94 c 2.9,-6.1 6.6,-11.6 11,-16.6 l 24.4,25.3 -36.9,35.6 c -0.9,0.9 -1,2.3 -0.1,3.2 1.6,1.8 3.3,3.5 5.1,5.1 0.9,0.8 2.4,0.8 3.2,-0.1 l 31.8,-33 -0.4,3 v 0.9 l -0.2,5.8 v 0.3 0.9 l -0.1,3.5 v 0 l -0.1,3.6 -0.1,0.3 v 0.9 L 97,155.2 c 0,0 0,0 0,0.1 v 0.1 c 0,0.6 0.2,1.1 0.6,1.5 0.4,0.4 0.9,0.6 1.5,0.6 v 0 h 0.1 6.1 0.1 0.1 c 0.6,0 1.1,-0.2 1.5,-0.6 0.4,-0.4 0.6,-0.9 0.6,-1.5 l -0.7,-22.9 v -0.8 -0.1 l -0.3,-7.8 v -0.5 -0.1 l -0.2,-5.9 v -1 l -0.1,-0.6 -0.3,-2.3 31.8,32.9 c 0.9,0.9 2.3,1 3.2,0.1 1.8,-1.6 3.5,-3.3 5.1,-5.1 0.8,-0.9 0.8,-2.4 -0.1,-3.2 z m -9.6,-40 c -1.2,0 -2.3,-1 -2.3,-2.2 L 97.7,51 h 1.1 l -0.3,8.1 c 0,1.3 1.1,2.4 2.4,2.4 h 3.1 c 1.3,0 2.4,-1.1 2.4,-2.4 L 106.1,51 h 1.1 l 0.4,9.3 c 0,1.2 -1,2.3 -2.3,2.3 h -2.1 v 32.8 l -0.7,0.6 -0.6,-0.6 V 62.6 Z m 5.2,54.1 v 0 l 0.4,11.2 v 0 l 0.3,10.6 v 0.1 l 0.5,16.6 c 0,0.2 -0.1,0.3 -0.2,0.4 -0.1,0.1 -0.3,0.2 -0.4,0.2 h -6.1 c -0.2,0 -0.3,-0.1 -0.4,-0.2 -0.1,-0.1 -0.2,-0.3 -0.2,-0.4 l 0.5,-15.9 c 0,-0.1 0,-0.1 0,-0.2 l 0.2,-6.9 v -0.4 -0.1 l 0.1,-4 v 0 l 0.1,-3.9 v -0.2 -0.2 -0.1 l 0.2,-6.8 v 0 c 0,0 0.3,-2.4 0.7,-5.2 l 1.8,-1.8 1.8,1.9 c 0.4,2.9 0.7,5.3 0.7,5.3 z m 39.9,24 -4.3,4.3 c -0.6,0.6 -1.5,0.6 -2.1,0 l -6.6,-7.1 v 0 l -8.8,-9.4 v 0 l -1.1,-1.2 v 0 l -7.8,-8.3 -0.6,-0.6 -7.6,-10.5 c 0,-0.1 -0.1,-0.1 -0.1,-0.2 l -3.3,-3.3 -3.3,3.3 c 0,0 -0.1,0.1 -0.1,0.2 l -7.6,10.5 -0.6,0.6 -8.9,9.5 v 0 l -8.8,9.4 v 0 l -6.6,7.1 c -0.6,0.6 -1.5,0.6 -2.1,0 l -4.3,-4.3 c -0.6,-0.6 -0.6,-1.5 0,-2.1 l 16.4,-15.4 0.4,-0.3 9.2,-8.6 0.6,-0.6 10.5,-7.6 c 0.1,0 0.1,-0.1 0.2,-0.1 l 3.3,-3.3 L 96,98 87.7,89.7 69.4,71.4 l -4.2,4.2 -1.8,-1.8 6,-6 1.8,1.8 16.5,16.5 14.8,14.8 13.8,-13.8 v 0 l 13,-13 -1,-1 c -1.1,-1.1 -1.1,-2.8 0,-3.9 l 5.1,-4.3 c 1.1,-1 2.7,-1 3.8,0.1 l 2.8,2.8 c 1,1 1.1,2.7 0.1,3.8 l -4.3,5.1 c -1.1,1.1 -2.8,1.1 -3.9,0 L 131.2,76 118.5,88.7 v 0 l -14.1,14.1 3.3,3.3 c 0,0 0.1,0.1 0.2,0.1 l 10.5,7.6 0.6,0.6 9.2,8.7 0.3,0.2 16.4,15.4 c 0.4,0.5 0.4,1.4 -0.2,2 z"
   id="path7"
   style="stroke-width:2.17276" />
				<path
   class="st0"
   d="m 132.7,74.1 c 0.5,0.5 1.4,0.5 1.9,0 l 3.7,-3.9 c 0.5,-0.5 0.5,-1.9 0,-2.4 l -1.2,-1.2 c -0.5,-0.5 -1.9,-0.5 -2.4,0 l -3.9,3.7 c -0.5,0.5 -0.5,1.4 0,1.9 z"
   id="path8"
   style="stroke-width:2.17276" />
			</g>
		</g>
	</g>
	<g
   class="st1"
   id="g19"
   style="stroke-width:2.17276">
		<path
   class="st0"
   d="m 266.9,166.1 c -0.3,-0.5 -0.7,-1.1 -1.2,-1.5 -0.4,-0.3 -1.1,-0.7 -2.2,-0.7 -2,0 -3.3,1.2 -3.3,3 0,0.8 0.2,1.2 0.7,1.7 0.6,0.6 1.3,0.9 2.1,1.2 l 1.9,0.8 c 1.2,0.5 2.2,1 3,1.9 1,1 1.4,2.2 1.4,3.6 0,3.6 -2.7,6.1 -6.2,6.1 -1.3,0 -2.9,-0.3 -4.3,-1.6 -1,-0.9 -1.6,-2.3 -1.8,-3.5 l 2.1,-0.6 c 0.1,1 0.6,1.9 1.2,2.5 0.9,0.9 1.8,1.1 2.8,1.1 2.7,0 4,-1.9 4,-3.9 0,-0.9 -0.3,-1.7 -1,-2.3 -0.6,-0.5 -1.3,-0.9 -2.4,-1.4 l -1.8,-0.8 c -0.8,-0.4 -1.7,-0.8 -2.6,-1.6 -0.9,-0.8 -1.4,-1.7 -1.4,-3.2 0,-3 2.3,-5.1 5.5,-5.1 1.2,0 2.2,0.2 3.2,0.9 0.8,0.5 1.5,1.3 1.9,2.2 z"
   id="path10"
   style="stroke-width:2.17276" />
		<path
   class="st0"
   d="m 273.9,163.5 c 0.8,0 1.5,0.7 1.5,1.5 0,0.8 -0.7,1.5 -1.5,1.5 -0.8,0 -1.5,-0.7 -1.5,-1.5 0,-0.8 0.7,-1.5 1.5,-1.5 z m 1.1,6.1 v 12.3 h -2.1 v -12.3 z"
   id="path11"
   style="stroke-width:2.17276" />
		<path
   class="st0"
   d="m 279,169.6 h 2.1 v 1.4 c 0.4,-0.5 1.5,-1.7 3.5,-1.7 1.5,0 2.8,0.6 3.5,1.7 0.6,0.9 0.7,1.9 0.7,3.3 v 7.6 h -2.1 v -7.5 c 0,-0.7 -0.1,-1.6 -0.6,-2.2 -0.4,-0.5 -1.1,-0.9 -2,-0.9 -0.7,0 -1.5,0.2 -2.2,0.9 -0.8,1 -0.9,2.4 -0.9,3.3 v 6.4 h -2.1 v -12.3 z"
   id="path12"
   style="stroke-width:2.17276" />
		<path
   class="st0"
   d="m 302.5,173.1 c -1.1,-1.4 -2.8,-1.8 -3.8,-1.8 -2.3,0 -4.4,1.6 -4.4,4.6 0,3 2.1,4.6 4.3,4.6 1.3,0 2.8,-0.6 4,-1.9 v 2.5 c -1.3,1 -2.8,1.3 -3.9,1.3 -3.8,0 -6.6,-2.7 -6.6,-6.4 0,-3.8 2.8,-6.5 6.6,-6.5 2,0 3.2,0.8 3.8,1.2 z"
   id="path13"
   style="stroke-width:2.17276" />
		<path
   class="st0"
   d="m 316.8,178.8 c -0.4,0.7 -0.9,1.4 -1.5,2 -1.1,1 -2.5,1.5 -4.1,1.5 -3,0 -6.1,-1.9 -6.1,-6.4 0,-3.7 2.3,-6.5 6,-6.5 2.4,0 3.9,1.2 4.6,2.3 0.8,1.1 1.2,3 1.2,4.6 h -9.6 c 0,2.5 1.8,4.2 3.9,4.2 1,0 1.8,-0.3 2.5,-0.9 0.6,-0.5 1,-1.1 1.3,-1.7 z m -2.1,-4.4 c -0.4,-1.9 -1.8,-3.2 -3.6,-3.2 -1.8,0 -3.3,1.4 -3.6,3.2 z"
   id="path14"
   style="stroke-width:2.17276" />
		<path
   class="st0"
   d="m 332.9,164.3 h -3.4 l 1.2,-2.1 h 4.4 v 19.7 h -2.2 z"
   id="path15"
   style="stroke-width:2.17276" />
		<path
   class="st0"
   d="m 351.2,164.2 h -10.8 v -2 h 14.5 l -13.2,20.2 -1.7,-1.2 z"
   id="path16"
   style="stroke-width:2.17276" />
		<path
   class="st0"
   d="m 364.7,163 -4.5,6.3 c 0.6,-0.2 1.1,-0.3 1.7,-0.3 3.8,0 6.4,2.8 6.4,6.5 0,3.9 -2.8,6.8 -6.8,6.8 -4.6,0 -6.8,-3.6 -6.8,-6.7 0,-0.7 0.1,-2.5 1.6,-4.5 l 6.7,-9.3 z m 1.4,12.6 c 0,-2.6 -2,-4.6 -4.6,-4.6 -2.7,0 -4.6,2 -4.6,4.6 0,2.6 1.9,4.7 4.6,4.7 2.7,0 4.6,-2.1 4.6,-4.7 z"
   id="path17"
   style="stroke-width:2.17276" />
		<path
   class="st0"
   d="m 384.1,164.2 h -6.3 l -1.3,4.3 c 0.4,-0.1 0.8,-0.1 1.2,-0.1 4,0 6.5,3 6.5,6.8 0,4.4 -3.3,7.1 -7.2,7.1 -1.6,0 -3.1,-0.4 -4.4,-1.5 -0.6,-0.5 -1.2,-1.2 -1.7,-2 l 1.7,-1.2 c 0.3,0.7 0.7,1.1 1.3,1.6 0.8,0.7 1.8,1.2 3.2,1.2 2.8,0 4.9,-2.3 4.9,-5.1 0,-2.8 -2,-4.9 -4.9,-4.9 -0.7,0 -2,0.1 -3.8,1.4 l 2.9,-9.5 h 7.8 z"
   id="path18"
   style="stroke-width:2.17276" />
		<path
   class="st0"
   d="m 390.1,179.3 c 0.8,0 1.5,0.7 1.5,1.5 0,0.8 -0.7,1.5 -1.5,1.5 -0.8,0 -1.5,-0.7 -1.5,-1.5 0,-0.9 0.7,-1.5 1.5,-1.5 z"
   id="path19"
   style="stroke-width:2.17276" />
	</g>
	<g
   class="st1"
   id="g44"
   style="stroke-width:2.17276">
		<path
   class="st0"
   d="m 265.9,132.7 v 17.7 h -2.2 v -17.7 h -4.8 v -2.1 h 11.8 v 2.1 z"
   id="path20"
   style="stroke-width:2.17276" />
		<path
   class="st0"
   d="m 273.2,128.7 h 2.1 v 10.7 c 0.4,-0.5 1.5,-1.7 3.5,-1.7 1.5,0 2.8,0.6 3.5,1.7 0.6,0.9 0.7,1.9 0.7,3.3 v 7.6 h -2.1 v -7.6 c 0,-0.7 -0.1,-1.6 -0.6,-2.3 -0.4,-0.5 -1.1,-0.9 -2,-0.9 -0.7,0 -1.5,0.2 -2.2,0.9 -0.8,1 -0.9,2.4 -0.9,3.3 v 6.4 h -2.1 v -21.4 z"
   id="path21"
   style="stroke-width:2.17276" />
		<path
   class="st0"
   d="m 298,147.2 c -0.4,0.7 -0.9,1.4 -1.5,2 -1.1,1 -2.5,1.5 -4.1,1.5 -3,0 -6.1,-1.9 -6.1,-6.4 0,-3.7 2.3,-6.5 6,-6.5 2.4,0 3.9,1.2 4.6,2.3 0.8,1.1 1.2,3 1.2,4.6 h -9.6 c 0,2.5 1.8,4.2 3.9,4.2 1,0 1.8,-0.3 2.5,-0.9 0.6,-0.5 1,-1.1 1.3,-1.7 z m -2.1,-4.4 c -0.4,-1.9 -1.8,-3.2 -3.6,-3.2 -1.8,0 -3.3,1.4 -3.6,3.2 z"
   id="path22"
   style="stroke-width:2.17276" />
		<path
   class="st0"
   d="m 310.9,142.7 c 0,1.7 0,3.5 1.6,4.8 0.8,0.7 2.2,1.1 3.3,1.1 1.1,0 2.5,-0.4 3.3,-1.1 1.6,-1.3 1.6,-3.1 1.6,-4.8 v -12.1 h 2.2 v 12.7 c 0,1.7 -0.2,3.3 -1.2,4.7 -1.2,1.6 -3.3,2.7 -5.8,2.7 -2.5,0 -4.6,-1 -5.8,-2.7 -1.1,-1.5 -1.2,-3.1 -1.2,-4.7 v -12.7 h 2.2 v 12.1 z"
   id="path23"
   style="stroke-width:2.17276" />
		<path
   class="st0"
   d="m 327.4,138 h 2.1 v 1.4 c 0.4,-0.5 1.5,-1.7 3.5,-1.7 1.5,0 2.8,0.6 3.5,1.7 0.6,0.9 0.7,1.9 0.7,3.3 v 7.6 h -2.1 v -7.6 c 0,-0.7 -0.1,-1.6 -0.6,-2.3 -0.4,-0.5 -1.1,-0.9 -2,-0.9 -0.7,0 -1.5,0.2 -2.2,0.9 -0.8,1 -0.9,2.4 -0.9,3.3 v 6.4 h -2.1 V 138 Z"
   id="path24"
   style="stroke-width:2.17276" />
		<path
   class="st0"
   d="m 342.3,131.9 c 0.8,0 1.5,0.7 1.5,1.5 0,0.8 -0.7,1.5 -1.5,1.5 -0.8,0 -1.5,-0.7 -1.5,-1.5 0,-0.8 0.7,-1.5 1.5,-1.5 z m 1.1,6.1 v 12.3 h -2.1 V 138 Z"
   id="path25"
   style="stroke-width:2.17276" />
		<path
   class="st0"
   d="m 348,138 3.7,8.3 3.7,-8.3 h 2.4 l -6,13.1 -6,-13.1 z"
   id="path26"
   style="stroke-width:2.17276" />
		<path
   class="st0"
   d="m 370.9,147.2 c -0.4,0.7 -0.9,1.4 -1.5,2 -1.1,1 -2.5,1.5 -4.1,1.5 -3,0 -6.1,-1.9 -6.1,-6.4 0,-3.7 2.3,-6.5 6,-6.5 2.4,0 3.9,1.2 4.7,2.3 0.8,1.1 1.2,3 1.2,4.6 h -9.6 c 0,2.5 1.8,4.2 3.9,4.2 1,0 1.8,-0.3 2.5,-0.9 0.6,-0.5 1,-1.1 1.3,-1.7 z m -2.1,-4.4 c -0.4,-1.9 -1.8,-3.2 -3.6,-3.2 -1.8,0 -3.3,1.4 -3.6,3.2 z"
   id="path27"
   style="stroke-width:2.17276" />
		<path
   class="st0"
   d="m 374.2,138 h 2.1 v 1.3 c 0.2,-0.3 1.1,-1.6 2.8,-1.6 0.7,0 1.4,0.2 1.9,0.5 l -1,1.9 c -0.5,-0.3 -0.9,-0.4 -1.2,-0.4 -0.9,0 -1.4,0.4 -1.7,0.8 -0.4,0.5 -0.7,1.3 -0.7,3.3 v 6.5 h -2.1 z"
   id="path28"
   style="stroke-width:2.17276" />
		<path
   class="st0"
   d="m 387.7,140.9 c -0.3,-0.7 -0.9,-1.2 -1.7,-1.2 -0.8,0 -1.5,0.4 -1.5,1.4 0,0.9 0.6,1.2 2,1.7 1.8,0.7 2.6,1.3 3.1,1.9 0.5,0.7 0.7,1.3 0.7,2 0,2.6 -1.9,4 -4.2,4 -0.5,0 -3.3,-0.1 -4.3,-3.1 l 1.8,-0.8 c 0.2,0.7 0.9,2 2.5,2 1.4,0 2,-1 2,-2 0,-1.2 -0.8,-1.5 -2,-2 -1.5,-0.7 -2.4,-1.1 -3,-1.8 -0.5,-0.6 -0.6,-1.2 -0.6,-1.8 0,-2.2 1.5,-3.4 3.6,-3.4 0.7,0 2.4,0.1 3.4,2.2 z"
   id="path29"
   style="stroke-width:2.17276" />
		<path
   class="st0"
   d="m 394.2,131.9 c 0.8,0 1.5,0.7 1.5,1.5 0,0.8 -0.7,1.5 -1.5,1.5 -0.8,0 -1.5,-0.7 -1.5,-1.5 0,-0.8 0.6,-1.5 1.5,-1.5 z m 1,6.1 v 12.3 h -2.1 V 138 Z"
   id="path30"
   style="stroke-width:2.17276" />
		<path
   class="st0"
   d="m 401.5,140 v 10.3 h -2.1 V 140 h -1.3 v -2 h 1.3 v -4.4 h 2.1 v 4.4 h 2.1 v 2 z"
   id="path31"
   style="stroke-width:2.17276" />
		<path
   class="st0"
   d="m 410.4,149.2 -5.7,-11.1 h 2.4 l 4.4,8.8 4,-8.8 h 2.4 l -9,19.1 h -2.4 z"
   id="path32"
   style="stroke-width:2.17276" />
		<path
   class="st0"
   d="m 426.3,144.2 c 0,-3.7 2.8,-6.5 6.5,-6.5 3.8,0 6.5,2.8 6.5,6.5 0,3.7 -2.8,6.5 -6.5,6.5 -3.8,0 -6.5,-2.7 -6.5,-6.5 z m 2.1,0 c 0,3 2.1,4.6 4.3,4.6 2.2,0 4.3,-1.6 4.3,-4.6 0,-3 -2.1,-4.6 -4.3,-4.6 -2.2,0 -4.3,1.6 -4.3,4.6 z"
   id="path33"
   style="stroke-width:2.17276" />
		<path
   class="st0"
   d="m 444.7,140 v 10.3 h -2.1 V 140 h -1.2 v -2 h 1.2 v -5.4 c 0,-1.1 0.1,-2.5 1.2,-3.5 0.6,-0.5 1.5,-0.8 2.5,-0.8 0.8,0 1.3,0.2 1.5,0.3 v 2.1 c -0.4,-0.2 -0.9,-0.3 -1.4,-0.3 -0.5,0 -1,0.1 -1.4,0.7 -0.3,0.4 -0.3,1.1 -0.3,1.8 v 5.1 h 3 v 2 z"
   id="path34"
   style="stroke-width:2.17276" />
		<path
   class="st0"
   d="m 460.3,130.6 c 1.3,0 3.3,0.1 4.8,1.1 1.2,0.8 2.2,2.3 2.2,4.4 0,3 -2,5.2 -5,5.4 l 6.3,8.8 h -2.7 l -6,-8.6 h -0.6 v 8.6 h -2.2 v -19.8 h 3.2 z m -1,9.1 h 1.4 c 2.7,0 4.4,-1.3 4.4,-3.6 0,-1.1 -0.3,-2.2 -1.6,-2.9 -0.9,-0.5 -1.9,-0.6 -2.8,-0.6 h -1.3 v 7.1 z"
   id="path35"
   style="stroke-width:2.17276" />
		<path
   class="st0"
   d="m 481.7,147.2 c -0.4,0.7 -0.9,1.4 -1.5,2 -1.1,1 -2.5,1.5 -4.1,1.5 -3,0 -6.1,-1.9 -6.1,-6.4 0,-3.7 2.3,-6.5 6,-6.5 2.4,0 3.9,1.2 4.7,2.3 0.8,1.1 1.2,3 1.2,4.6 h -9.6 c 0,2.5 1.8,4.2 3.9,4.2 1,0 1.8,-0.3 2.5,-0.9 0.6,-0.5 1,-1.1 1.3,-1.7 z m -2.1,-4.4 c -0.4,-1.9 -1.8,-3.2 -3.6,-3.2 -1.8,0 -3.3,1.4 -3.6,3.2 z"
   id="path36"
   style="stroke-width:2.17276" />
		<path
   class="st0"
   d="m 490.1,140.9 c -0.3,-0.7 -0.9,-1.2 -1.7,-1.2 -0.8,0 -1.5,0.4 -1.5,1.4 0,0.9 0.6,1.2 2,1.7 1.8,0.7 2.6,1.3 3.1,1.9 0.5,0.7 0.7,1.3 0.7,2 0,2.6 -1.9,4 -4.2,4 -0.5,0 -3.3,-0.1 -4.3,-3.1 l 1.8,-0.8 c 0.2,0.7 0.9,2 2.5,2 1.4,0 2,-1 2,-2 0,-1.2 -0.8,-1.5 -2,-2 -1.5,-0.7 -2.4,-1.1 -3,-1.8 -0.5,-0.6 -0.6,-1.2 -0.6,-1.8 0,-2.2 1.5,-3.4 3.6,-3.4 0.7,0 2.4,0.1 3.4,2.2 z"
   id="path37"
   style="stroke-width:2.17276" />
		<path
   class="st0"
   d="m 494.7,144.2 c 0,-3.7 2.8,-6.5 6.5,-6.5 3.8,0 6.5,2.8 6.5,6.5 0,3.7 -2.8,6.5 -6.5,6.5 -3.7,0 -6.5,-2.7 -6.5,-6.5 z m 2.2,0 c 0,3 2.1,4.6 4.3,4.6 2.2,0 4.3,-1.6 4.3,-4.6 0,-3 -2.1,-4.6 -4.3,-4.6 -2.2,0 -4.3,1.6 -4.3,4.6 z"
   id="path38"
   style="stroke-width:2.17276" />
		<path
   class="st0"
   d="m 513.1,145.2 c 0,0.9 0,1.9 0.6,2.6 0.3,0.4 1,0.9 2.2,0.9 1.2,0 1.8,-0.5 2.2,-0.9 0.6,-0.8 0.6,-1.8 0.6,-2.6 V 138 h 2.1 v 7.4 c 0,1.5 -0.1,2.6 -1.1,3.7 -1.1,1.2 -2.5,1.5 -3.8,1.5 -1.2,0 -2.7,-0.4 -3.8,-1.5 -1,-1.1 -1.1,-2.2 -1.1,-3.7 V 138 h 2.1 z"
   id="path39"
   style="stroke-width:2.17276" />
		<path
   class="st0"
   d="m 524.8,138 h 2.1 v 1.3 c 0.2,-0.3 1.1,-1.6 2.8,-1.6 0.7,0 1.4,0.2 1.9,0.5 l -1,1.9 c -0.5,-0.3 -0.9,-0.4 -1.2,-0.4 -0.9,0 -1.4,0.4 -1.7,0.8 -0.4,0.5 -0.7,1.3 -0.7,3.3 v 6.5 h -2.1 z"
   id="path40"
   style="stroke-width:2.17276" />
		<path
   class="st0"
   d="m 542.5,141.5 c -1.1,-1.4 -2.8,-1.8 -3.8,-1.8 -2.3,0 -4.4,1.6 -4.4,4.6 0,3 2.1,4.6 4.3,4.6 1.3,0 2.8,-0.6 4,-1.9 v 2.5 c -1.3,1 -2.8,1.3 -3.9,1.3 -3.8,0 -6.6,-2.7 -6.6,-6.4 0,-3.8 2.8,-6.5 6.6,-6.5 2,0 3.2,0.8 3.8,1.2 z"
   id="path41"
   style="stroke-width:2.17276" />
		<path
   class="st0"
   d="m 556.7,147.2 c -0.4,0.7 -0.9,1.4 -1.5,2 -1.1,1 -2.5,1.5 -4.1,1.5 -3,0 -6.1,-1.9 -6.1,-6.4 0,-3.7 2.3,-6.5 6,-6.5 2.4,0 3.9,1.2 4.6,2.3 0.8,1.1 1.2,3 1.2,4.6 h -9.6 c 0,2.5 1.8,4.2 3.9,4.2 1,0 1.8,-0.3 2.5,-0.9 0.6,-0.5 1,-1.1 1.3,-1.7 z m -2.1,-4.4 c -0.4,-1.9 -1.8,-3.2 -3.6,-3.2 -1.8,0 -3.3,1.4 -3.6,3.2 z"
   id="path42"
   style="stroke-width:2.17276" />
		<path
   class="st0"
   d="m 565.2,140.9 c -0.3,-0.7 -0.9,-1.2 -1.7,-1.2 -0.8,0 -1.5,0.4 -1.5,1.4 0,0.9 0.6,1.2 2,1.7 1.8,0.7 2.6,1.3 3.1,1.9 0.5,0.7 0.7,1.3 0.7,2 0,2.6 -1.9,4 -4.2,4 -0.5,0 -3.3,-0.1 -4.3,-3.1 l 1.8,-0.8 c 0.2,0.7 0.9,2 2.5,2 1.4,0 2,-1 2,-2 0,-1.2 -0.8,-1.5 -2,-2 -1.5,-0.7 -2.4,-1.1 -3,-1.8 -0.5,-0.6 -0.6,-1.2 -0.6,-1.8 0,-2.2 1.5,-3.4 3.6,-3.4 0.7,0 2.4,0.1 3.4,2.2 z"
   id="path43"
   style="stroke-width:2.17276" />
		<path
   class="st0"
   d="m 571.9,147.7 c 0.8,0 1.5,0.7 1.5,1.5 0,0.8 -0.7,1.5 -1.5,1.5 -0.8,0 -1.5,-0.7 -1.5,-1.5 0,-0.8 0.7,-1.5 1.5,-1.5 z"
   id="path44"
   style="stroke-width:2.17276" />
	</g>
</g>
</svg>
